<svg width="40" height="40" viewBox="0 0 50 50" fill="none" xmlns="http://www.w3.org/2000/svg">
<path d="M15.8169 50H9.26999V17.7778L5.04056 5.55556H0V0H8.16918L11.993 11.1111H50L41.7149 30.625C43.6848 30.9954 45.3364 32.0833 46.6698 33.8889C48.0031 35.6944 48.669 37.8241 48.6674 40.2778C48.6674 42.963 47.8857 45.2546 46.3221 47.1528C44.7586 49.0509 42.8552 50 40.6118 50C38.3329 50 36.4117 49.0509 34.8482 47.1528C33.2847 45.2546 32.5029 42.963 32.5029 40.2778C32.5029 39.3519 32.5995 38.4954 32.7926 37.7083C32.9857 36.9213 33.2561 36.1574 33.6037 35.4167L26.0139 34.5833L15.8169 50ZM13.905 29.7222V44.375L20.7995 34.0278L15.1796 33.4028L13.905 29.7222ZM40.5562 44.4444C41.5604 44.4444 42.3909 44.0389 43.0475 43.2278C43.7041 42.4167 44.0324 41.4333 44.0324 40.2778C44.0324 39.0741 43.7041 38.0787 43.0475 37.2917C42.3909 36.5046 41.5604 36.1111 40.5562 36.1111C39.5906 36.1111 38.7694 36.5046 38.0927 37.2917C37.416 38.0787 37.0784 39.0741 37.08 40.2778C37.08 41.4352 37.4183 42.4194 38.095 43.2306C38.7717 44.0417 39.5921 44.4463 40.5562 44.4444Z" fill="#FEFEFE"/>
</svg>
